<?xml version="1.0" standalone="no"?>
<!DOCTYPE svg PUBLIC "-//W3C//DTD SVG 20010904//EN"
 "http://www.w3.org/TR/2001/REC-SVG-20010904/DTD/svg10.dtd">
<svg version="1.0" xmlns="http://www.w3.org/2000/svg"
 width="512.000000pt" height="512.000000pt" viewBox="0 0 512.000000 512.000000"
 preserveAspectRatio="xMidYMid meet">
<metadata>
Created by potrace 1.14, written by Peter Selinger 2001-2017
</metadata>
<g transform="translate(0.000000,512.000000) scale(0.100000,-0.100000)"
fill="#000000" stroke="none">
<path d="M675 5102 c-121 -34 -271 -146 -308 -232 -7 -14 -14 -27 -17 -30 -3
-3 -15 -30 -25 -60 -19 -53 -20 -94 -22 -1365 -1 -720 2 -1337 7 -1370 5 -33
11 -82 15 -108 3 -26 10 -71 16 -100 6 -29 12 -63 15 -77 15 -79 105 -355 132
-406 6 -11 29 -58 52 -105 22 -47 71 -133 108 -192 338 -537 902 -917 1517
-1021 153 -26 165 -27 360 -31 233 -4 360 10 575 61 824 198 1480 869 1664
1699 13 61 27 133 31 160 4 28 9 61 12 75 3 14 8 621 10 1349 3 1173 2 1330
-12 1385 -56 219 -234 370 -455 382 -96 5 -164 -8 -248 -47 -61 -29 -107 -71
-555 -517 l-487 -487 -498 0 -497 -1 -480 476 c-264 262 -495 487 -513 499
-101 70 -274 97 -397 63z"/>
</g>
</svg>
