<?xml version="1.0" standalone="no"?>
<!DOCTYPE svg PUBLIC "-//W3C//DTD SVG 20010904//EN"
 "http://www.w3.org/TR/2001/REC-SVG-20010904/DTD/svg10.dtd">
<svg version="1.0" xmlns="http://www.w3.org/2000/svg"
 width="512.000000pt" height="512.000000pt" viewBox="0 0 512.000000 512.000000"
 preserveAspectRatio="xMidYMid meet">

<g transform="translate(0.000000,512.000000) scale(0.100000,-0.100000)"
fill="#000000" stroke="none">
<path d="M730 5113 c-108 -18 -238 -88 -304 -164 -52 -60 -102 -166 -116 -247
-8 -48 -10 -430 -7 -1362 3 -1403 1 -1345 58 -1590 116 -497 394 -937 795
-1256 325 -259 690 -413 1124 -475 113 -16 441 -17 560 -1 436 58 843 237
1180 520 358 300 626 734 734 1192 62 263 60 193 63 1616 4 1423 6 1377 -54
1501 -40 84 -134 175 -225 218 -144 68 -285 70 -431 4 -69 -31 -92 -53 -562
-521 l-491 -488 -494 0 -494 0 -486 483 c-408 406 -495 488 -547 516 -93 48
-213 69 -303 54z m154 -313 c27 -13 188 -166 459 -438 l418 -418 -373 -229
c-205 -126 -466 -286 -581 -356 l-207 -128 2 729 3 728 30 43 c58 82 163 111
249 69z m3525 -6 c34 -17 62 -41 79 -67 l27 -41 3 -723 c1 -398 0 -723 -3
-723 -9 0 -1118 681 -1135 697 -13 12 39 68 410 438 329 327 433 426 460 433
60 17 104 13 159 -14z m-1750 -1855 c99 -22 202 -114 243 -217 22 -55 23 -70
25 -372 l2 -315 -21 54 c-29 72 -114 163 -186 198 -51 25 -67 28 -162 28 -96
0 -110 -2 -160 -29 -74 -38 -135 -98 -173 -171 -30 -56 -32 -66 -32 -165 0
-99 2 -109 32 -165 38 -73 99 -133 173 -171 50 -27 64 -29 160 -29 94 0 111 3
161 28 68 33 152 119 181 184 16 34 23 75 26 142 l5 94 156 -6 c119 -4 169
-10 212 -25 226 -80 352 -311 294 -537 -22 -84 -60 -147 -126 -210 -122 -117
-288 -156 -526 -125 -135 18 -284 106 -361 215 l-21 30 -18 -25 c-65 -92 -157
-159 -267 -198 -85 -29 -283 -41 -381 -23 -146 27 -277 126 -343 260 -36 73
-37 78 -37 185 0 107 1 113 37 189 65 136 187 230 332 256 33 6 115 11 182 11
l123 0 3 323 3 322 27 57 c53 113 162 199 275 217 52 8 92 6 162 -10z m-919
-389 l0 -150 -155 0 -155 0 0 150 0 150 155 0 155 0 0 -150z m1948 -2 l3 -148
-156 0 -155 0 0 150 0 151 153 -3 152 -3 3 -147z"/>
</g>
</svg>
